HIERARCHY
ROOT hip
{
	OFFSET 0.000000 0.000000 0.000000 
	CHANNELS 6 Xposition Yposition Zposition Xrotation Zrotation Yrotation
	JOINT abdomen
	{
		OFFSET 0.000000 3.402643 0.000000 
		CHANNELS 3 Xrotation Zrotation Yrotation
		JOINT chest
		{
			OFFSET 0.000000 8.438565 -0.680529 
			CHANNELS 3 Xrotation Zrotation Yrotation
			JOINT neck
			{
				OFFSET 0.000000 10.207942 -0.272212 
				CHANNELS 3 Xrotation Zrotation Yrotation
				JOINT head
				{
					OFFSET 0.000000 3.130431 0.000000 
					CHANNELS 3 Xrotation Zrotation Yrotation
					End Site
					{
						OFFSET 0.000000 3.130435 0.000000 
					}
				}
			}
			JOINT lCollar
			{
				OFFSET 3.470700 6.669187 -0.816635 
				CHANNELS 3 Yrotation Zrotation Xrotation
				JOINT lShldr
				{
					OFFSET 3.198488 0.000000 0.000000 
					CHANNELS 3 Zrotation Yrotation Xrotation
					JOINT lForeArm
					{
						OFFSET 10.139888 0.000000 0.000000 
						CHANNELS 3 Yrotation Zrotation Xrotation
						JOINT lHand
						{
							OFFSET 8.370511 0.000000 0.000000 
							CHANNELS 3 Zrotation Yrotation Xrotation
							End Site
							{
								OFFSET 4.083176 0.000000 0.000000 
							}
						}
					}
				}
			}
			JOINT rCollar
			{
				OFFSET -3.470700 6.669187 -0.816635 
				CHANNELS 3 Yrotation Zrotation Xrotation
				JOINT rShldr
				{
					OFFSET -3.198488 0.000000 0.000000 
					CHANNELS 3 Zrotation Yrotation Xrotation
					JOINT rForeArm
					{
						OFFSET -10.139888 0.000000 0.000000 
						CHANNELS 3 Yrotation Zrotation Xrotation
						JOINT rHand
						{
							OFFSET -8.370511 0.000000 0.000000 
							CHANNELS 3 Zrotation Yrotation Xrotation
							End Site
							{
								OFFSET -4.083176 0.000000 0.000000 
							}
						}
					}
				}
			}
		}
	}
	JOINT lThigh
	{
		OFFSET 5.308129 -1.633274 1.361059 
		CHANNELS 3 Xrotation Zrotation Yrotation
		JOINT lShin
		{
			OFFSET -2.041588 -20.007561 0.000000 
			CHANNELS 3 Xrotation Zrotation Yrotation
			JOINT lFoot
			{
				OFFSET 0.000000 -19.190928 -1.224953 
				CHANNELS 3 Xrotation Yrotation Zrotation
				End Site
				{
					OFFSET 0.000000 -2.449906 4.627600 
				}
			}
		}
	}
	JOINT rThigh
	{
		OFFSET -5.308129 -1.633274 1.361059 
		CHANNELS 3 Xrotation Zrotation Yrotation
		JOINT rShin
		{
			OFFSET 2.041588 -20.007561 0.000000 
			CHANNELS 3 Xrotation Zrotation Yrotation
			JOINT rFoot
			{
				OFFSET 0.000000 -19.190928 -1.224953 
				CHANNELS 3 Xrotation Yrotation Zrotation
				End Site
				{
					OFFSET 0.000000 -2.449906 4.627600 
				}
			}
		}
	}
}
MOTION
Frames: 16
Frame Time: 0.033333
-0.443723 50.063122 0.356996 3.936019 4.184541 -7.313849 0.000000 0.000000 0.000000 -4.499404 -7.999410 4.811559 5.772825 7.528975 0.533034 -13.531259 -4.846357 -22.517027 3.445660 28.539646 22.702059 -84.052376 -36.664196 -12.355734 -51.090988 -21.468809 25.143467 -8.017917 6.229566 47.923904 -26.422129 -15.838468 16.388969 66.725060 9.422437 68.660057 16.462933 -11.974126 -16.995420 31.053038 -3.501221 -10.454013 25.912458 1.866845 16.231184 21.826185 -1.641240 -0.987610 -4.648852 -13.789930 -29.305275 -8.933733 -8.416209 -1.120039 14.025924 5.914756 1.513926 -6.142930 -9.953039 40.855244 
-0.911053 50.292912 0.650361 4.320047 3.549926 -6.692209 0.000000 0.000000 0.000000 -5.068725 -6.877794 5.046128 5.798785 6.884534 0.472394 -13.410955 -4.826346 -22.829868 4.408859 28.160160 22.238895 -86.685944 -34.556747 -10.996760 -48.025223 -20.437788 23.616217 -4.221765 4.874608 49.019695 -26.086924 -16.391886 16.229504 66.491692 12.704151 67.885696 18.081533 -14.211300 -16.631924 29.983585 -3.450223 -10.362237 23.737991 4.111887 17.319254 27.254858 -0.499666 -1.077189 -2.909020 -16.071939 -30.567131 -5.875988 -7.271680 -0.867896 12.789268 5.740229 1.385494 -7.587308 -10.476378 38.969311 
-1.290868 50.485081 0.842475 4.557139 3.290416 -6.328640 0.000000 0.000000 0.000000 -5.435176 -5.912744 5.252066 6.043633 5.663937 0.382855 -13.546357 -4.474024 -22.856888 6.199795 26.848110 21.479750 -88.206894 -32.445141 -10.244841 -44.945587 -19.032568 25.181475 -2.314544 4.370195 49.377731 -25.201355 -17.576061 15.983341 66.407555 16.143433 67.153748 19.940153 -16.659088 -16.167545 28.852434 -3.108533 -10.202393 21.565798 5.459840 18.046318 30.634745 1.047178 -0.913428 -3.041970 -18.809292 -30.560987 -3.024048 -6.418019 -0.676341 11.574145 5.455256 1.235087 -9.082063 -10.592219 37.053127 
-1.553817 50.625534 0.952446 4.741672 3.252079 -6.250089 0.000000 0.000000 0.000000 -5.681255 -4.996952 5.449818 6.377264 4.150343 0.274841 -13.741782 -3.940798 -22.605330 8.347253 25.230379 20.675322 -89.188728 -29.891031 -9.794303 -42.569431 -17.203943 29.348179 -1.915279 4.998870 49.251053 -24.016758 -19.245621 15.671492 66.142487 19.953363 66.230934 21.843630 -18.762238 -15.541004 28.191576 -2.953872 -10.047930 19.307028 5.927744 18.441301 31.310358 2.487638 -0.616682 -4.503910 -20.493509 -30.511581 -0.624914 -5.933772 -0.601744 10.756779 5.260909 1.110821 -10.393405 -10.310087 35.186905 
-1.740745 50.753395 0.995213 5.126248 3.600806 -6.360219 0.000000 0.000000 0.000000 -6.057057 -4.432158 5.573176 6.637921 2.587881 0.156532 -13.861867 -3.284866 -22.108807 10.639359 23.711037 19.877119 -89.709503 -26.460173 -9.613061 -40.932304 -15.500504 34.090004 -2.080055 6.621188 48.994617 -22.576607 -21.046652 15.502247 65.595123 24.334702 65.010796 23.276939 -20.478279 -14.717885 28.290264 -2.894966 -9.856791 16.077984 5.713209 18.611727 30.425592 2.903048 -0.476918 -5.719967 -19.593454 -31.218046 1.120843 -5.840914 -0.608932 10.250262 5.027132 1.031891 -11.496921 -9.587995 33.310238 
-1.873001 50.905865 0.964730 5.528100 4.617458 -6.632227 0.000000 0.000000 0.000000 -6.293593 -4.578177 5.544731 6.563179 0.996094 0.039226 -13.516480 -2.608903 -21.449150 13.206095 22.038017 19.104877 -89.145248 -22.577150 -10.067217 -39.599304 -14.821318 37.310879 -2.300564 8.770655 48.865059 -20.558641 -22.906620 15.653336 65.115234 28.950901 63.732994 23.586134 -21.915308 -14.502940 28.320944 -2.490067 -9.663397 11.828641 4.833117 18.519091 29.502808 2.329883 -0.565309 -6.047516 -16.952162 -31.611855 2.509327 -6.434923 -0.828101 9.930179 4.745039 0.956877 -12.522923 -8.589773 31.462208 
-1.969802 51.137859 0.882269 4.575143 6.020810 -6.902981 0.000000 0.000000 0.000000 -4.787675 -5.328168 5.374620 6.056119 -0.839843 -0.097789 -12.376131 -1.948075 -20.530087 15.842417 19.776485 18.608438 -87.299583 -18.859146 -11.236958 -38.317806 -14.972801 39.717846 -3.217909 11.498019 48.645519 -17.887119 -24.451557 16.341202 63.935658 33.883568 61.950859 22.931358 -23.165699 -15.431223 28.013157 -1.925082 -9.487043 8.266208 3.456333 18.165691 28.334639 0.982925 -0.799387 -5.486431 -13.463493 -31.602810 5.424047 -7.658722 -1.266687 9.252015 4.576622 0.853689 -13.587691 -7.788699 29.736755 
-2.052220 51.263306 0.600280 4.492862 6.685534 -6.508238 0.000000 0.000000 0.000000 -3.614204 -5.474532 5.317204 5.205694 -2.646464 -0.225272 -11.333858 -2.225605 -19.664103 18.069883 18.337343 18.183966 -86.069061 -15.575224 -12.088484 -37.400055 -15.342765 42.873417 -5.460674 14.390267 47.967590 -15.623425 -26.101900 16.919954 61.774879 38.245884 59.641941 22.258804 -24.248831 -17.231958 27.604033 -1.397301 -9.336023 2.850119 2.909332 18.069984 27.608377 -0.257194 -1.057596 -4.428212 -10.013814 -31.600372 7.273586 -8.046159 -1.426874 8.830235 4.370401 0.798977 -14.762576 -8.052968 28.253399 
-2.097845 51.266808 0.266905 5.008765 6.710353 -6.086658 0.000000 0.000000 0.000000 -2.989442 -4.958306 5.420636 4.509138 -4.345621 -0.352772 -11.385563 -2.506321 -19.355564 20.420330 17.503098 17.606312 -85.202782 -12.374045 -12.770913 -37.054798 -16.005293 46.246117 -8.326609 16.846874 46.930553 -13.477085 -27.900038 17.499493 59.023907 41.790485 57.125118 21.561033 -25.178112 -19.216795 27.469929 -0.805866 -9.165707 -2.916057 2.882656 18.006126 26.422142 -1.460647 -1.247116 -3.250439 -6.610931 -31.748274 8.367057 -7.733089 -1.343171 8.540613 4.118279 0.713679 -15.907928 -8.391985 27.372229 
-2.101896 51.260899 -0.023540 5.183627 6.681824 -6.037029 0.000000 0.000000 0.000000 -2.173497 -4.520155 5.505022 3.825551 -5.878725 -0.451857 -11.704975 -2.125356 -18.880880 22.771173 16.578327 17.110466 -84.085663 -9.056095 -13.658127 -37.050346 -16.518368 48.333019 -10.674047 18.214867 46.047680 -11.230508 -29.296946 18.345661 55.740322 45.103451 54.232964 20.286385 -25.852736 -20.782146 27.553038 -0.003461 -8.952340 -7.666018 2.714888 17.752718 24.269419 -2.608107 -1.377327 -2.178870 -3.156132 -32.181900 9.782161 -7.458974 -1.296843 8.268052 3.874825 0.612042 -17.227022 -8.350661 26.593752 
-2.075294 51.248623 -0.320756 5.157792 6.252117 -6.237526 0.000000 0.000000 0.000000 -1.064776 -3.877823 5.618351 2.982147 -6.855188 -0.522037 -12.095927 -2.000940 -18.459141 24.569345 15.824039 16.807592 -83.325226 -5.674760 -14.409867 -37.131096 -16.234188 47.656021 -11.553328 18.734327 45.776985 -9.456179 -30.000000 19.092318 52.189129 48.449436 51.053570 18.541977 -26.078238 -21.643633 27.405266 0.991640 -8.731158 -11.511528 2.713572 17.515509 21.031122 -3.432380 -1.350004 -1.114020 -0.412153 -33.196800 11.294216 -6.823398 -1.133776 8.366581 3.580762 0.602963 -19.054575 -8.171641 25.293627 
-1.990410 51.163685 -0.662668 5.598588 5.024967 -6.626544 0.000000 0.000000 0.000000 -0.373679 -2.476998 5.913636 2.237785 -7.275057 -0.552366 -12.689482 -2.245075 -18.207977 25.836624 15.637066 16.444069 -83.631233 -2.638094 -14.554303 -36.912510 -14.908025 44.782883 -11.341095 19.141445 45.866093 -8.640280 -30.000000 19.426195 48.581234 51.653000 47.674133 17.288446 -25.557451 -22.294201 27.027660 1.516139 -8.642113 -15.012100 3.334945 17.453348 17.383278 -3.563980 -1.153385 -0.271159 0.914780 -34.183025 11.760982 -5.397764 -0.680479 9.450027 3.269968 0.590055 -21.070610 -7.982227 24.250015 
-1.793837 50.974789 -0.896411 5.937761 3.805520 -7.457314 0.000000 0.000000 0.000000 0.174808 -1.087349 6.202274 1.556692 -7.401992 -0.562067 -13.055055 -2.577283 -17.694637 26.394474 15.821740 16.168100 -84.558250 0.097620 -14.314425 -36.688663 -12.702527 41.254047 -11.262948 19.939056 45.731205 -8.794863 -30.000000 19.265190 45.350140 54.709106 44.368755 17.251509 -24.450678 -22.248714 26.578976 1.624615 -8.632003 -17.396282 3.990407 17.428768 14.908824 -3.360688 -0.956624 0.253802 1.648763 -34.768784 12.437768 -4.285908 -0.361228 10.546274 3.144130 0.653914 -22.997118 -7.310900 23.754316 
-1.580757 50.751228 -0.918000 5.292850 2.603070 -9.169695 0.000000 0.000000 0.000000 1.330418 0.106743 6.445337 0.961664 -7.470349 -0.562073 -13.251536 -2.681440 -16.258966 26.858746 15.955631 15.937876 -85.302628 2.530606 -14.167098 -36.110783 -10.128799 38.484749 -11.714689 21.052265 45.300007 -9.130318 -30.000000 19.046925 43.198158 57.973438 41.397461 17.966927 -23.304352 -20.909464 25.961760 1.667924 -8.637350 -17.977985 5.195172 17.729874 14.579427 -3.312401 -0.919004 0.348039 2.292136 -35.099213 14.807504 -3.436263 -0.142513 10.899152 2.780682 0.630091 -24.692001 -5.751528 23.850483 
-1.345431 50.506935 -0.750448 4.112473 1.367709 -11.653552 0.000000 0.000000 0.000000 2.725686 1.183412 6.642228 0.526371 -7.626565 -0.581443 -13.419439 -2.388160 -13.977292 27.432949 15.989394 15.713590 -85.900543 4.403558 -14.048030 -35.016518 -7.260371 37.292988 -12.951475 22.305340 44.509899 -9.425948 -30.000000 18.847219 42.783119 61.131805 39.382175 19.385813 -22.322271 -18.239103 25.091078 1.898872 -8.622909 -17.048216 6.794636 18.339323 15.770292 -3.351960 -1.014240 0.215179 2.453697 -34.734535 18.157949 -2.997190 -0.028041 11.004258 2.236104 0.525653 -26.025629 -3.291358 25.070236 
-1.036688 50.239677 -0.365485 3.165858 0.444243 -14.560932 0.000000 0.000000 0.000000 3.343992 1.997534 6.810995 0.441924 -7.831620 -0.592448 -13.443153 -1.589883 -11.264317 28.121241 15.658481 15.629503 -86.067139 5.300173 -14.055051 -33.359524 -4.155733 37.809864 -14.976422 23.604305 43.301430 -9.748356 -30.000000 18.629595 45.181683 63.393013 39.654556 21.719917 -21.907700 -13.918335 24.166546 2.492995 -8.529358 -15.184405 8.133449 18.986429 17.332983 -3.466276 -1.126547 0.331759 2.238719 -33.295567 21.301376 -3.299950 -0.124223 11.476029 1.561241 0.410027 -27.293547 -0.335347 27.342558 
